<svg xmlns="http://www.w3.org/2000/svg" xmlns:xlink="http://www.w3.org/1999/xlink" width="43" height="43" viewBox="0 0 43 43">
  <defs>
    <clipPath id="clip-path">
      <rect id="Rectangle_32" data-name="Rectangle 32" width="43" height="43" transform="translate(0.277)" fill="#e5e0ff"/>
    </clipPath>
  </defs>
  <g id="Mask_Group_6" data-name="Mask Group 6" transform="translate(-0.277)" clip-path="url(#clip-path)">
    <g id="linkedin" transform="translate(0 3.209)">
      <path id="Path_2525" d="M52.279,48.739h.409L51.9,47.554h0a.669.669,0,0,0,.736-.677.377.377,0,0,0,0-.045c0-.508-.306-.751-.935-.751H50.689v2.658h.382V47.581h.47Zm-.765-1.459h-.443v-.9h.562c.29,0,.621.047.621.427,0,.436-.335.472-.742.472" transform="translate(-10.859 -13.081)"/>
      <path id="Path_2520" d="M31.136,35.22H25.721V26.74c0-2.022-.036-4.624-2.816-4.624-2.82,0-3.252,2.2-3.252,4.478V35.22H14.24V17.782h5.2v2.382h.072a5.7,5.7,0,0,1,5.128-2.816c5.489,0,6.5,3.61,6.5,8.3ZM8.13,15.4a3.142,3.142,0,1,1,3.142-3.142A3.142,3.142,0,0,1,8.13,15.4h0M10.837,35.22H5.417V17.782h5.42Zm23-31.134H2.7A2.667,2.667,0,0,0,0,6.72V37.987a2.668,2.668,0,0,0,2.7,2.636h31.14a2.673,2.673,0,0,0,2.706-2.636V6.718a2.673,2.673,0,0,0-2.706-2.634" transform="translate(0 -4.083)" fill="#ff7d83"/>
      <path id="Path_2526" d="M51.126,44.575a2.491,2.491,0,1,0,.049,0h-.049m.058,4.7a2.234,2.234,0,0,1-2.278-2.146,2.185,2.185,0,1,1,4.369-.072v.036a2.138,2.138,0,0,1-2.091,2.182h-.056" transform="translate(-10.424 -12.758)"/>
    </g>
  </g>
</svg>
