<svg xmlns="http://www.w3.org/2000/svg" xmlns:xlink="http://www.w3.org/1999/xlink" width="43" height="43" viewBox="0 0 43 43">
  <defs>
    <clipPath id="clip-path">
      <rect id="Rectangle_31" data-name="Rectangle 31" width="43" height="43" transform="translate(0.139)" fill="#e5e0ff"/>
    </clipPath>
  </defs>
  <g id="Mask_Group_5" data-name="Mask Group 5" transform="translate(-0.139)" clip-path="url(#clip-path)">
    <g id="github" transform="translate(0 0.534)">
      <path id="Path_17" data-name="Path 17" d="M21.608.678A21.61,21.61,0,0,0,14.776,42.79c1.08.2,1.477-.468,1.477-1.039,0-.515-.02-2.217-.029-4.023-6.011,1.307-7.28-2.55-7.28-2.55a5.725,5.725,0,0,0-2.4-3.162c-1.961-1.341.148-1.313.148-1.313A4.541,4.541,0,0,1,10,32.931c1.927,3.3,5.054,2.348,6.288,1.8a4.608,4.608,0,0,1,1.372-2.89c-4.8-.546-9.844-2.4-9.844-10.678a8.359,8.359,0,0,1,2.227-5.8,7.757,7.757,0,0,1,.209-5.719s1.815-.58,5.944,2.215a20.481,20.481,0,0,1,10.82,0c4.123-2.8,5.937-2.215,5.937-2.215a7.766,7.766,0,0,1,.212,5.719,8.349,8.349,0,0,1,2.224,5.8c0,8.3-5.054,10.127-9.866,10.662a5.167,5.167,0,0,1,1.466,4c0,2.892-.025,5.218-.025,5.93,0,.574.389,1.25,1.484,1.037A21.611,21.611,0,0,0,21.608.678Z" transform="translate(0 -0.678)" fill="#ff7d83" fill-rule="evenodd"/>
      <path id="Path_18" data-name="Path 18" d="M10.257,40.063c-.047.108-.216.14-.371.067s-.245-.218-.194-.324.216-.14.373-.067.247.216.193.324Z" transform="translate(-2.073 -9.038)" fill="#ff7d83"/>
      <path id="Path_19" data-name="Path 19" d="M11.374,41.241c-.1.1-.3.05-.441-.1s-.167-.353-.063-.448.3-.05.443.1.169.349.061.447Z" transform="translate(-2.315 -9.24)" fill="#ff7d83"/>
      <path id="Path_20" data-name="Path 20" d="M12.454,42.786c-.133.092-.349.005-.483-.185s-.133-.423,0-.515.348-.009.483.182.131.425,0,.519Z" transform="translate(-2.543 -9.541)" fill="#ff7d83"/>
      <path id="Path_21" data-name="Path 21" d="M13.9,44.324c-.119.131-.371.1-.555-.083a.416.416,0,0,1-.122-.553c.121-.131.375-.094.56.083s.243.423.117.553Z" transform="translate(-2.818 -9.876)" fill="#ff7d83"/>
      <path id="Path_22" data-name="Path 22" d="M15.9,45.277c-.052.169-.3.247-.54.175s-.405-.272-.355-.443.3-.25.542-.173.4.27.353.441Z" transform="translate(-3.213 -10.132)" fill="#ff7d83"/>
      <path id="Path_23" data-name="Path 23" d="M18.146,45.484c.005.178-.2.326-.459.33s-.468-.139-.47-.313.2-.326.461-.331.468.139.468.315Z" transform="translate(-3.688 -10.21)" fill="#ff7d83"/>
      <path id="Path_24" data-name="Path 24" d="M20.242,45.147c.031.173-.148.353-.4.4s-.483-.061-.515-.234.151-.357.4-.4.484.059.517.238Z" transform="translate(-4.139 -10.152)" fill="#ff7d83"/>
    </g>
  </g>
</svg>
